<mxfile host="65bd71144e">
    <diagram id="khqHDw7c9Qq-7v8NBz9Z" name="Page-1">
        <mxGraphModel dx="840" dy="475" grid="1" gridSize="10" guides="1" tooltips="1" connect="1" arrows="1" fold="1" page="1" pageScale="1" pageWidth="850" pageHeight="1100" math="0" shadow="0">
            <root>
                <mxCell id="0"/>
                <mxCell id="1" parent="0"/>
                <mxCell id="2" value="{&lt;br&gt;email: user@gmail.com,&lt;br&gt;upi: boi@upi&lt;br&gt;}" style="whiteSpace=wrap;html=1;" vertex="1" parent="1">
                    <mxGeometry x="520" y="190" width="220" height="170" as="geometry"/>
                </mxCell>
                <mxCell id="14" style="edgeStyle=none;html=1;exitX=1;exitY=0.5;exitDx=0;exitDy=0;entryX=0.227;entryY=0.529;entryDx=0;entryDy=0;entryPerimeter=0;" edge="1" parent="1" source="3" target="2">
                    <mxGeometry relative="1" as="geometry"/>
                </mxCell>
                <mxCell id="3" value="userOne" style="whiteSpace=wrap;html=1;" vertex="1" parent="1">
                    <mxGeometry x="200" y="300" width="120" height="60" as="geometry"/>
                </mxCell>
                <mxCell id="13" style="edgeStyle=none;html=1;" edge="1" parent="1" source="4" target="2">
                    <mxGeometry relative="1" as="geometry">
                        <Array as="points">
                            <mxPoint x="560" y="275"/>
                        </Array>
                    </mxGeometry>
                </mxCell>
                <mxCell id="4" value="userTwo" style="whiteSpace=wrap;html=1;" vertex="1" parent="1">
                    <mxGeometry x="200" y="245" width="120" height="60" as="geometry"/>
                </mxCell>
                <mxCell id="5" value="" style="whiteSpace=wrap;html=1;" vertex="1" parent="1">
                    <mxGeometry x="200" y="190" width="120" height="60" as="geometry"/>
                </mxCell>
                <mxCell id="6" value="Stack" style="text;strokeColor=none;align=center;fillColor=none;html=1;verticalAlign=middle;whiteSpace=wrap;rounded=0;" vertex="1" parent="1">
                    <mxGeometry x="230" y="380" width="60" height="30" as="geometry"/>
                </mxCell>
                <mxCell id="8" value="Heap" style="text;strokeColor=none;align=center;fillColor=none;html=1;verticalAlign=middle;whiteSpace=wrap;rounded=0;" vertex="1" parent="1">
                    <mxGeometry x="600" y="380" width="60" height="30" as="geometry"/>
                </mxCell>
                <mxCell id="9" value="Stack and&amp;nbsp; heap" style="text;strokeColor=#2D7600;align=center;fillColor=#60a917;html=1;verticalAlign=middle;whiteSpace=wrap;rounded=0;fontColor=#ffffff;" vertex="1" parent="1">
                    <mxGeometry x="328" y="40" width="195" height="40" as="geometry"/>
                </mxCell>
                <mxCell id="11" value="All Premitive data Types and Copied and returns copy" style="text;strokeColor=none;align=center;fillColor=none;html=1;verticalAlign=middle;whiteSpace=wrap;rounded=0;" vertex="1" parent="1">
                    <mxGeometry x="190" y="420" width="140" height="30" as="geometry"/>
                </mxCell>
                <mxCell id="12" value="All Non Premitive data types.&lt;br&gt;And r actuall changes returns in refernce form&lt;br&gt;" style="text;strokeColor=none;align=center;fillColor=none;html=1;verticalAlign=middle;whiteSpace=wrap;rounded=0;" vertex="1" parent="1">
                    <mxGeometry x="530" y="420" width="200" height="30" as="geometry"/>
                </mxCell>
            </root>
        </mxGraphModel>
    </diagram>
</mxfile>